<svg xmlns="http://www.w3.org/2000/svg" version="1.1" xmlns:xlink="http://www.w3.org/1999/xlink" xmlns:svgjs="http://svgjs.dev/svgjs" width="1000" height="1000" viewBox="0 0 1000 1000"><rect width="1000" height="1000" fill="#000000"></rect><g transform="matrix(0.7,0,0,0.7,150,150.00034633971296)"><svg viewBox="0 0 280 280" data-background-color="#282634" preserveAspectRatio="xMidYMid meet" height="1000" width="1000" xmlns="http://www.w3.org/2000/svg" xmlns:xlink="http://www.w3.org/1999/xlink"><g id="tight-bounds" transform="matrix(1,0,0,1,0,-0.00004151571386046271)"><svg viewBox="0 0 280 280" height="280" width="280"><g><svg viewBox="0 0 280 280" height="280" width="280"><g transform="matrix(1,0,0,1,60.80404050710668,105.57383061031192)"><svg viewBox="0 0 158.39191898578665 68.85233877937617" height="68.85233877937617" width="158.39191898578665"><g><svg viewBox="0 0 276.98506523130754 120.40430894612082" height="68.85233877937617" width="158.39191898578665"><g><rect width="3.320760369143756" height="120.40430894612082" x="106.57929590479665" y="0" fill="#ffffff" opacity="1" stroke-width="0" stroke="transparent" fill-opacity="1" class="rect-o-0" data-fill-palette-color="primary" rx="1%" id="o-0" data-palette-color="#ff4057"></rect></g><g transform="matrix(1,0,0,1,118.59314624552093,0.29951320633362855)"><svg viewBox="0 0 158.39191898578665 119.80528253345356" height="119.80528253345356" width="158.39191898578665"><g id="textblocktransform"><svg viewBox="0 0 158.39191898578665 119.80528253345356" height="119.80528253345356" width="158.39191898578665" id="textblock"><g><svg viewBox="0 0 158.39191898578665 119.80528253345356" height="119.80528253345356" width="158.39191898578665"><g transform="matrix(1,0,0,1,0,0)"><svg width="158.39191898578665" viewBox="0 -34.29999923706055 152.70001220703125 111.9000015258789" height="119.80528253345356" data-palette-color="#ff4057"><svg></svg><svg></svg><svg></svg><g class="undefined-text-0" data-fill-palette-color="primary" id="text-0"><path xmlns="http://www.w3.org/2000/svg" d="M9.35 0v-28.6h-8.5v-5.7h23.4v5.7h-8.5v28.6zM28.05 0v-34.3h6.4v13.9h10.8v-13.9h6.4v34.3h-6.4v-14.7h-10.8v14.7zM57.65 0v-34.3h21.85v5.7h-15.45v8.2h13.25v5.7h-13.25v9h15.75v5.7z" fill="#ffffff" fill-rule="nonzero" stroke="none" stroke-width="1" stroke-linecap="butt" stroke-linejoin="miter" stroke-miterlimit="10" stroke-dasharray="" stroke-dashoffset="0" font-family="none" font-weight="none" font-size="none" text-anchor="none" style="mix-blend-mode: normal" data-fill-palette-color="primary" opacity="1"></path><path xmlns="http://www.w3.org/2000/svg" d="M0 38.5l11.05-34.3h7.45l11.05 34.3h-6.55l-2.1-6.75h-12.65l-2.05 6.75zM10 26.05h9.15l-3.45-11.45c-0.333-1.133-0.667-2.683-1-4.65v0h-0.2c-0.333 2.1-0.667 3.65-1 4.65v0zM44.4 39.1c-3.733 0-6.623-0.977-8.67-2.93-2.053-1.947-3.08-4.753-3.08-8.42v0-23.55h6.4v23.35c0 1.967 0.467 3.467 1.4 4.5 0.933 1.033 2.25 1.55 3.95 1.55v0c1.7 0 3.027-0.517 3.98-1.55 0.947-1.033 1.42-2.533 1.42-4.5v0-23.35h6.4v23.55c0 3.667-1.033 6.473-3.1 8.42-2.067 1.953-4.967 2.93-8.7 2.93zM68.55 38.5v-28.6h-8.5v-5.7h23.4v5.7h-8.5v28.6zM99.5 39.1c-4.533 0-8.043-1.477-10.53-4.43-2.48-2.947-3.72-7.387-3.72-13.32v0c0-5.933 1.24-10.377 3.72-13.33 2.487-2.947 5.997-4.42 10.53-4.42v0c4.533 0 8.043 1.473 10.53 4.42 2.48 2.953 3.72 7.397 3.72 13.33v0c0 5.933-1.24 10.373-3.72 13.32-2.487 2.953-5.997 4.43-10.53 4.43zM99.5 33.6c2.5 0 4.4-0.96 5.7-2.88 1.3-1.913 1.95-4.62 1.95-8.12v0-2.5c0-3.5-0.65-6.21-1.95-8.13-1.3-1.913-3.2-2.87-5.7-2.87v0c-2.5 0-4.4 0.957-5.7 2.87-1.3 1.92-1.95 4.63-1.95 8.13v0 2.5c0 3.5 0.65 6.207 1.95 8.12 1.3 1.92 3.2 2.88 5.7 2.88z" fill="#ffffff" fill-rule="nonzero" stroke="none" stroke-width="1" stroke-linecap="butt" stroke-linejoin="miter" stroke-miterlimit="10" stroke-dasharray="" stroke-dashoffset="0" font-family="none" font-weight="none" font-size="none" text-anchor="none" style="mix-blend-mode: normal" data-fill-palette-color="primary" opacity="1"></path><path xmlns="http://www.w3.org/2000/svg" d="M0 77l11.05-34.3h7.45l11.05 34.3h-6.55l-2.1-6.75h-12.65l-2.05 6.75zM10 64.55h9.15l-3.45-11.45c-0.333-1.133-0.667-2.683-1-4.65v0h-0.2c-0.333 2.1-0.667 3.65-1 4.65v0zM32.6 77v-34.3h11.15c4.333 0 7.71 1.417 10.13 4.25 2.413 2.833 3.62 6.967 3.62 12.4v0c0 5.767-1.2 10.15-3.6 13.15-2.4 3-5.783 4.5-10.15 4.5v0zM39 71.3h4.15c2.433 0 4.333-0.91 5.7-2.73 1.367-1.813 2.05-4.47 2.05-7.97v0-2.5c0-3.167-0.683-5.577-2.05-7.23-1.367-1.647-3.267-2.47-5.7-2.47v0h-4.15zM69.65 77l-10.45-34.3h6.6l7.2 24.55h0.2l7.1-24.55h6.25l-10.45 34.3zM89.05 77v-34.3h6.4v34.3zM113.3 77.6c-4.4 0-7.773-1.477-10.12-4.43-2.353-2.947-3.53-7.387-3.53-13.32v0c0-5.933 1.177-10.377 3.53-13.33 2.347-2.947 5.72-4.42 10.12-4.42v0c3.767 0 6.81 1.117 9.13 3.35 2.313 2.233 3.47 5.567 3.47 10v0h-6.55c0-2.567-0.54-4.517-1.62-5.85-1.087-1.333-2.563-2-4.43-2v0c-2.333 0-4.09 0.957-5.27 2.87-1.187 1.92-1.78 4.63-1.78 8.13v0 2.5c0 3.5 0.61 6.207 1.83 8.12 1.213 1.92 3.02 2.88 5.42 2.88v0c1.9 0 3.4-0.66 4.5-1.98 1.1-1.313 1.65-3.253 1.65-5.82v0h6.25c0 4.333-1.15 7.633-3.45 9.9-2.3 2.267-5.35 3.4-9.15 3.4zM130.55 77v-34.3h21.85v5.7h-15.45v8.2h13.25v5.7h-13.25v9h15.75v5.7z" fill="#ffffff" fill-rule="nonzero" stroke="none" stroke-width="1" stroke-linecap="butt" stroke-linejoin="miter" stroke-miterlimit="10" stroke-dasharray="" stroke-dashoffset="0" font-family="none" font-weight="none" font-size="none" text-anchor="none" style="mix-blend-mode: normal" data-fill-palette-color="primary" opacity="1"></path></g></svg></g></svg></g></svg></g></svg></g><g transform="matrix(1,0,0,1,0,18.95367861344502)"><svg viewBox="0 0 97.88620593321615 82.49695171923078" height="82.49695171923078" width="97.88620593321615"><g><svg xmlns="http://www.w3.org/2000/svg" xmlns:xlink="http://www.w3.org/1999/xlink" version="1.1" x="0" y="0" viewBox="2.500000238418579 10.400003433227539 99.90695190429688 84.20000457763672" enable-background="new -2.5 -2.5 110 110" xml:space="preserve" height="82.49695171923078" width="97.88620593321615" class="icon-icon-0" data-fill-palette-color="accent" id="icon-0"><path fill-rule="evenodd" clip-rule="evenodd" d="M100.7 47.4c-0.9-1.7-3.3-3.6-3.3-3.6l-9.9-25.9h0c-2.1-4.9-8.1-7.5-10.7-7.5H28.2c-2.6 0-8.7 2.6-10.7 7.5L7.6 43.8c0 0-2.4 1.9-3.3 3.6-0.9 1.7-1.8 3.2-1.8 14.7 0 11.2 2.3 15.2 5 16.5l2.8 0.2v10.5c0 3.4 2 5.3 5.3 5.3l2.9 0c3.3 0 5-1.9 5-5.3V78.8h57.9v10.5c0 3.4 1.8 5.3 5 5.3l2.9 0c3.3 0 5.3-1.9 5.3-5.3V78.8l2.8-0.2c2.8-1.4 5-5.4 5-16.5C102.5 50.6 101.5 49.1 100.7 47.4zM21.8 67.5c-3.5 0-6.4-2.9-6.4-6.4 0-3.5 2.9-6.4 6.4-6.4 3.5 0 6.4 2.9 6.4 6.4C28.2 64.6 25.4 67.5 21.8 67.5zM83.4 67.5c-3.5 0-6.4-2.9-6.4-6.4 0-3.5 2.9-6.4 6.4-6.4 3.5 0 6.4 2.9 6.4 6.4C89.8 64.6 86.9 67.5 83.4 67.5zM83.2 39.3H21.8c0 0-1.2 0.1-0.8-1.1 0.3-1 4.4-11.4 5.3-14.2 0.4-1 2.4-3.2 5.1-3.1h42.3c2.7-0.2 4.7 2.1 5.1 3.1 0.9 2.8 5 13.2 5.3 14.2C84.4 39.4 83.2 39.3 83.2 39.3z" fill="#ffffff" data-fill-palette-color="accent"></path></svg></g></svg></g></svg></g></svg></g><g><path d="M13.993 196.177L35.667 186.777 32.874 180.337 37.189 178.465 44.876 196.19 40.561 198.061 37.768 191.621 16.094 201.021ZM21.439 211.665L45.215 196.262 48.091 200.702 38.452 206.946 43.301 214.432 52.94 208.188 55.811 212.619 32.035 228.021 29.165 223.59 39.354 216.989 34.505 209.503 24.315 216.104ZM36.763 233.209L57.195 213.587 69.696 226.603 66.303 229.861 57.467 220.66 52.576 225.357 60.152 233.245 56.76 236.503 49.184 228.615 43.819 233.766 52.828 243.147 49.436 246.404ZM59.671 254.287L81.978 234.583 87.271 237.724 80.655 266.739 76.004 263.979 77.363 258.299 68.376 252.966 64.075 256.9ZM72.024 249.662L78.523 253.518 80.894 243.93C81.138 242.988 81.554 241.747 82.143 240.208V240.208L81.998 240.122C80.881 241.471 79.992 242.431 79.33 243.002V243.002ZM93.637 272.337C90.752 271.25 88.803 269.655 87.789 267.552 86.769 265.446 86.793 262.976 87.862 260.141V260.141L94.719 241.941 99.669 243.806 92.871 261.848C92.296 263.374 92.219 264.669 92.639 265.735 93.057 266.806 93.924 267.589 95.239 268.085V268.085C96.554 268.58 97.728 268.566 98.762 268.041 99.799 267.526 100.605 266.505 101.18 264.979V264.979L107.978 246.937 112.919 248.799 106.061 266.999C104.993 269.833 103.378 271.704 101.216 272.611 99.048 273.515 96.521 273.424 93.637 272.337ZM115.044 277.533L118.937 254.231 112.013 253.074 112.788 248.435 131.844 251.619 131.069 256.257 124.145 255.101 120.252 278.403ZM142.345 279.999C138.6 280.043 135.689 278.857 133.612 276.441 131.529 274.033 130.459 270.379 130.402 265.481V265.481C130.345 260.576 131.329 256.895 133.355 254.439 135.375 251.975 138.257 250.722 142.003 250.678V250.678C145.748 250.634 148.658 251.82 150.735 254.236 152.812 256.644 153.879 260.301 153.936 265.206V265.206C153.993 270.105 153.012 273.782 150.992 276.238 148.972 278.702 146.09 279.955 142.345 279.999ZM142.292 275.455C144.353 275.431 145.912 274.621 146.967 273.024 148.022 271.427 148.533 269.184 148.499 266.294V266.294L148.475 264.236C148.441 261.346 147.878 259.115 146.786 257.543 145.694 255.972 144.117 255.198 142.056 255.222V255.222C139.988 255.246 138.426 256.057 137.371 257.653 136.315 259.25 135.804 261.493 135.838 264.383V264.383L135.862 266.441C135.896 269.331 136.459 271.562 137.551 273.134 138.644 274.705 140.224 275.479 142.292 275.455ZM166.512 277.292L167.138 247.536 173.035 245.772 189.889 270.299 184.707 271.849 181.45 267.001 171.438 269.996 171.418 275.824ZM171.481 265.074L178.721 262.908 173.277 254.667C172.749 253.849 172.119 252.702 171.386 251.226V251.226L171.224 251.275C171.46 253.01 171.563 254.315 171.534 255.188V255.188ZM193.913 268.445L181.067 243.196 189.274 239.021C192.464 237.398 195.479 237.177 198.318 238.357 201.158 239.538 203.595 242.128 205.63 246.128V246.128C207.788 250.37 208.546 254.045 207.904 257.154 207.262 260.262 205.333 262.634 202.119 264.269V264.269ZM196.495 261.854L199.544 260.303C201.34 259.389 202.399 258.006 202.721 256.154 203.046 254.308 202.553 252.097 201.242 249.521V249.521L200.305 247.677C199.12 245.35 197.716 243.833 196.093 243.127 194.469 242.421 192.759 242.524 190.963 243.438V243.438L187.915 244.989ZM221.883 251.59L197.466 234.833 201.725 231.434 219.019 243.571 219.152 243.465 211.09 223.96 215.123 220.741 226.049 248.266ZM235.133 240.635L215.11 220.595 218.845 216.864 238.868 236.903ZM249.24 224.352C247.055 227.254 244.405 228.748 241.288 228.833 238.176 228.922 234.663 227.494 230.749 224.548V224.548C226.829 221.598 224.482 218.616 223.706 215.602 222.925 212.583 223.626 209.622 225.81 206.72V206.72C227.68 204.236 229.927 202.782 232.551 202.36 235.181 201.941 237.957 202.832 240.881 205.032V205.032L237.629 209.354C235.934 208.079 234.378 207.468 232.96 207.521 231.543 207.574 230.37 208.218 229.441 209.452V209.452C228.281 210.993 228.041 212.63 228.721 214.361 229.397 216.097 230.89 217.835 233.199 219.573V219.573L234.844 220.81C237.153 222.548 239.243 223.491 241.115 223.638 242.987 223.786 244.519 223.068 245.71 221.484V221.484C246.651 220.234 246.96 218.92 246.638 217.54 246.315 216.161 245.306 214.834 243.612 213.558V213.558L246.721 209.427C249.581 211.579 251.186 213.977 251.535 216.622 251.89 219.27 251.125 221.846 249.24 224.352ZM257.824 210.633L232.487 197.962 240.56 181.821 244.766 183.925 239.06 195.334 245.125 198.368 250.017 188.585 254.224 190.689 249.331 200.471 255.983 203.798 261.801 192.166 266.007 194.27Z" fill="#ffffff" data-fill-palette-color="accent"></path><path d="M36.206 96.578L15.095 86.915 12.223 93.19 8.019 91.266 15.927 73.988 20.131 75.912 17.259 82.187 38.37 91.849ZM42.111 84.545L19.007 69.011 21.903 64.703 31.268 71 36.162 63.723 26.796 57.426 29.692 53.118 52.796 68.653 49.9 72.96 39.999 66.303 35.105 73.58 45.007 80.238ZM54.971 66.734L35.16 47.172 47.623 34.55 50.913 37.798 42.096 46.728 46.837 51.408 54.396 43.753 57.686 47.001 50.127 54.657 55.328 59.792 64.312 50.693 67.602 53.941ZM73.244 49.797L67.011 21.219 72.238 18.182 93.981 37.748 89.39 40.416 85.159 36.538 76.278 41.698 77.595 47.27ZM75.184 36.986L81.606 33.254 74.519 26.62C73.822 25.96 72.954 25.007 71.916 23.763V23.763L71.779 23.842C72.403 25.458 72.801 26.683 72.972 27.519V27.519ZM103.762 34.822C100.921 35.873 98.445 35.943 96.335 35.035 94.225 34.126 92.654 32.275 91.622 29.484V29.484L84.994 11.559 89.862 9.759 96.435 27.534C96.989 29.033 97.768 30.042 98.773 30.561 99.774 31.088 100.921 31.113 102.214 30.635V30.635C103.507 30.156 104.372 29.388 104.807 28.33 105.239 27.279 105.177 26.005 104.623 24.507V24.507L98.051 6.731 102.919 4.931 109.547 22.856C110.579 25.648 110.583 28.077 109.56 30.145 108.536 32.212 106.604 33.772 103.762 34.822ZM120.5 29.948L116.741 7.037 109.931 8.154 109.183 3.592 127.934 0.515 128.682 5.078 121.873 6.195 125.632 29.106ZM143.596 28.815C139.917 28.773 137.084 27.543 135.096 25.128 133.109 22.712 132.143 19.094 132.198 14.275V14.275C132.253 9.456 133.302 5.862 135.344 3.492 137.387 1.123 140.247-0.041 143.926 0.001V0.001C147.605 0.043 150.438 1.272 152.426 3.688 154.413 6.104 155.379 9.722 155.324 14.54V14.54C155.269 19.359 154.22 22.954 152.178 25.323 150.135 27.693 147.275 28.857 143.596 28.815ZM143.647 24.35C145.675 24.374 147.225 23.613 148.297 22.067 149.375 20.528 149.931 18.337 149.963 15.493V15.493L149.987 13.465C150.019 10.621 149.514 8.418 148.471 6.855 147.435 5.285 145.903 4.489 143.875 4.465V4.465C141.847 4.442 140.297 5.203 139.225 6.749 138.153 8.288 137.601 10.479 137.568 13.323V13.323L137.545 15.351C137.513 18.195 138.014 20.398 139.05 21.961 140.087 23.531 141.619 24.327 143.647 24.351ZM161.546 29.591L177.997 5.406 183.797 7.109 184.557 36.349 179.462 34.853 179.365 29.115 169.51 26.22 166.373 31.009ZM172.177 22.185L179.304 24.278 179.243 14.57C179.242 13.609 179.336 12.324 179.526 10.715V10.715L179.373 10.67C178.63 12.235 178.014 13.366 177.526 14.066V14.066ZM184.986 36.753L197.411 11.838 205.508 15.876C208.658 17.447 210.598 19.699 211.327 22.634 212.056 25.568 211.438 29.007 209.47 32.952V32.952C207.382 37.14 204.921 39.891 202.089 41.204 199.259 42.512 196.257 42.374 193.084 40.791V40.791ZM191.694 34.932L194.711 36.436C196.479 37.318 198.188 37.344 199.838 36.515 201.491 35.695 202.953 34.013 204.222 31.468V31.468L205.127 29.653C206.275 27.351 206.649 25.353 206.25 23.657 205.857 21.965 204.776 20.678 203.009 19.796V19.796L199.992 18.292ZM209.002 50.776L219.426 23.602 223.653 26.897 216.016 46.208 216.142 46.305 232.931 34.127 236.939 37.25 213.135 53.997ZM220.373 59.837L239.784 39.879 243.512 43.505 224.101 63.463ZM231.727 74.015C229.533 71.194 228.797 68.299 229.518 65.328 230.234 62.352 232.495 59.384 236.299 56.426V56.426C240.103 53.467 243.535 52.006 246.596 52.044 249.653 52.076 252.278 53.503 254.472 56.323V56.323C256.348 58.735 257.15 61.24 256.877 63.837 256.6 66.438 255.04 68.843 252.199 71.053V71.053L248.933 66.854C250.576 65.576 251.556 64.256 251.872 62.892 252.188 61.538 251.88 60.262 250.948 59.064V59.064C249.784 57.568 248.292 56.918 246.472 57.116 244.662 57.315 242.634 58.287 240.39 60.033V60.033L238.789 61.279C236.544 63.025 235.113 64.764 234.495 66.496 233.871 68.232 234.156 69.866 235.349 71.399V71.399C236.297 72.618 237.467 73.253 238.859 73.305 240.246 73.35 241.764 72.732 243.413 71.45V71.45L246.532 75.461C243.754 77.622 241.066 78.529 238.469 78.18 235.867 77.836 233.619 76.448 231.727 74.015ZM239.087 83.535L263.746 70.61 271.981 86.321 267.886 88.468 262.061 77.354 256.16 80.446 261.155 89.975 257.059 92.122 252.065 82.593 245.592 85.985 251.528 97.311 247.433 99.458Z" fill="#ffffff" data-fill-palette-color="accent"></path><path d="M3.891 143.158c0-5.976 4.845-10.821 10.822-10.821 5.976 0 10.821 4.845 10.821 10.821 0 5.976-4.845 10.821-10.821 10.822-5.976 0-10.821-4.845-10.822-10.822zM254.466 143.158c0-5.976 4.845-10.821 10.821-10.821 5.976 0 10.821 4.845 10.822 10.821 0 5.976-4.845 10.821-10.822 10.822-5.976 0-10.821-4.845-10.821-10.822z" fill="#ffffff" data-fill-palette-color="accent"></path></g></svg></g><defs></defs></svg><rect width="280" height="280" fill="none" stroke="none" visibility="hidden"></rect></g></svg></g></svg>